<svg width="2208" height="2184" viewBox="0 0 2208 2184" fill="none" xmlns="http://www.w3.org/2000/svg">
<rect x="1143" y="1103" width="319" height="291" fill="#780606"/>
<rect x="766" y="1103" width="319" height="291" fill="#780606"/>
<path d="M103.776 262.398C-75.5211 449.937 -21.8333 598.955 259.775 694.245C293.203 705.396 354.994 721.616 395.514 729.726C526.188 757.097 611.278 812.852 632.55 884.826C638.628 903.073 631.537 911.183 579.876 938.554C526.188 966.938 415.773 1063.24 415.773 1080.48C415.773 1098.72 478.578 1114.94 551.512 1115.96H630.524L673.07 1222.4C726.757 1353.17 762.212 1425.14 807.796 1493.06C837.172 1535.64 847.302 1565.04 862.496 1650.19C879.717 1745.48 883.769 1757.65 915.171 1785.02C942.522 1808.33 955.69 1834.69 977.976 1903.62C993.17 1953.29 1008.37 1992.83 1012.42 1992.83C1015.46 1992.83 1026.6 1974.58 1036.73 1952.28C1045.85 1929.98 1058 1911.73 1063.07 1911.73C1067.12 1911.73 1077.25 1975.6 1084.34 2054.67C1092.44 2132.72 1101.56 2190.51 1105.61 2183.41C1109.66 2176.31 1118.78 2114.48 1125.87 2045.54C1139.04 1914.77 1151.2 1892.47 1174.49 1957.35C1186.65 1992.83 1203.87 2003.98 1209.95 1979.65C1211.97 1973.57 1223.12 1933.02 1235.27 1891.46C1250.47 1837.73 1264.65 1810.36 1281.87 1796.17C1319.35 1768.8 1334.54 1733.32 1347.71 1639.04C1357.84 1572.13 1367.97 1544.76 1395.32 1503.2C1443.95 1430.21 1485.48 1347.09 1535.11 1222.4L1577.66 1115.96H1657.68C1711.37 1115.96 1747.84 1109.87 1767.09 1099.74L1797.47 1083.52L1744.8 1027.76C1715.42 996.336 1663.76 956.801 1630.33 938.554C1578.67 911.183 1570.57 903.073 1575.63 884.826C1596.91 810.824 1668.83 765.206 1828.88 725.671C2013.24 680.053 2100.36 640.518 2160.12 577.667C2215.83 517.857 2222.93 448.924 2181.39 365.798C2158.1 316.125 2049.71 192.451 2039.58 202.588C2037.55 204.615 2040.59 234.013 2047.68 267.466C2063.89 345.523 2048.69 402.292 2000.07 447.91C1934.23 510.761 1846.1 541.173 1650.59 568.543C1471.3 593.886 1407.48 632.408 1378.1 732.767C1371.01 757.097 1361.89 776.357 1357.84 776.357C1353.79 776.357 1330.49 765.206 1306.18 752.028C1281.87 738.849 1226.16 721.616 1183.61 714.52C1087.38 698.3 971.898 713.506 903.015 752.028C878.704 765.206 855.406 776.357 851.354 776.357C846.289 776.357 840.211 761.151 836.159 742.904C814.886 640.518 739.926 593.886 557.59 568.543C410.708 548.269 300.294 514.816 236.476 470.212C164.555 421.553 135.178 332.345 163.542 251.247C183.801 193.464 167.594 196.505 103.776 262.398ZM913.145 1228.48C973.924 1276.12 1023.56 1319.72 1023.56 1324.78C1023.56 1330.87 1011.4 1332.89 996.209 1329.85C980.002 1325.8 934.418 1319.72 892.886 1314.65C816.912 1304.51 800.705 1295.39 800.705 1256.86C800.705 1244.7 797.666 1214.29 794.627 1187.93C790.575 1162.59 791.588 1141.3 794.627 1141.3C798.679 1141.3 852.367 1180.83 913.145 1228.48ZM1406.47 1219.36C1401.4 1256.86 1393.3 1292.34 1389.24 1296.4C1380.13 1305.52 1183.61 1334.92 1176.52 1327.82C1169.43 1321.74 1178.55 1314.65 1296.05 1223.41C1354.8 1178.81 1405.45 1144.34 1408.49 1146.37C1412.54 1148.4 1411.53 1181.85 1406.47 1219.36Z" fill="black"/>
<mask id="path-4-inside-1_554_1252" fill="white">
<path d="M1100.71 4.52246C1099.56 7.20166 1094.59 21.3632 1089.62 36.2902C1084.27 50.8344 1077.77 69.5888 1075.09 77.6264C1068.59 96.3809 1067.06 97.5291 1037.24 104.801C963.825 123.173 898.825 171.016 856.383 237.996L842.236 260.195L814.706 260.578C799.412 260.961 785.265 261.343 782.971 262.109C781.059 262.491 769.971 263.257 759.265 263.257C748.177 263.64 739 265.171 739 267.084C739 268.615 756.206 282.777 777.236 298.469C798.265 314.162 815.854 328.706 816.618 331.003C817.383 332.916 816.618 347.843 815.089 363.536C805.912 446.208 835.354 531.56 896.913 598.923C900.354 602.75 903.031 608.109 902.266 610.405C901.119 612.319 896.148 629.925 890.795 649.062C885.06 668.199 879.707 686.954 878.178 690.399C873.972 701.115 882.383 697.288 919.854 671.644L956.178 646.766L984.09 659.779C1029.59 680.83 1055.97 686.571 1109.89 686.571C1160.74 686.571 1190.18 680.447 1235.3 659.779C1246.39 654.803 1256.33 650.593 1257.47 650.593C1258.62 650.593 1275.06 661.31 1293.8 674.323C1312.53 687.337 1328.97 696.905 1330.12 695.374C1332.8 693.078 1330.5 683.892 1317.12 637.963L1309.09 612.319L1332.03 586.292C1356.5 558.352 1384.8 505.916 1395.5 468.79C1400.48 451.567 1402 430.516 1402.39 383.821V321.817L1437.95 294.642C1459.36 278.567 1471.59 267.084 1468.53 265.936C1462.8 263.64 1431.83 261.343 1398.56 260.578L1375.24 260.195L1362.24 238.379C1322.86 172.93 1244.47 117.432 1171.83 103.27C1159.21 100.591 1147.36 97.5291 1145.06 95.9981C1141.62 94.0844 1130.53 66.1441 1114.86 17.9185C1108.74 0.312256 1103.39 -4.66339 1100.71 4.52246ZM1121.74 154.941C1125.56 165.275 1134.74 190.918 1142 211.969C1149.65 232.638 1154.62 251.009 1153.47 252.923C1150.41 257.899 1061.33 257.133 1058.27 252.54C1055.59 248.33 1088.86 146.903 1095.74 138.483C1103.77 128.149 1114.86 135.038 1121.74 154.941ZM1046.8 153.792C1045.27 160.682 1040.68 174.843 1036.47 185.56C1032.27 195.894 1025.38 215.031 1021.18 227.662C1016.97 240.292 1012.38 251.775 1010.85 252.923C1007.03 257.133 896.531 260.578 894.236 256.75C893.089 255.219 896.913 246.799 903.031 238.761C931.707 200.104 979.884 164.509 1027.68 147.668C1049.09 140.014 1049.47 140.014 1046.8 153.792ZM1192.09 149.199C1223.06 159.916 1252.89 177.14 1278.89 199.722C1303.74 221.155 1329.36 254.837 1324 258.281C1317.12 262.491 1203.94 255.985 1199.36 251.009C1195.92 247.564 1159.59 148.817 1159.59 143.076C1159.59 139.631 1170.68 141.927 1192.09 149.199ZM993.267 298.469C996.325 303.445 968.031 390.328 963.443 390.328C960.002 390.328 869.766 322.199 866.707 317.224C865.56 315.31 865.942 310.334 867.089 306.124C869.383 299.618 873.589 298.469 912.207 297.321C935.913 296.938 963.06 295.79 973.002 295.407C982.943 295.025 992.12 296.556 993.267 298.469ZM1174.12 304.976C1187.12 337.892 1209.68 414.441 1208.15 418.651C1205.86 424.392 1111.41 493.669 1105.68 493.669C1101.86 493.669 999.002 421.33 999.002 418.651C999.002 415.972 1037.24 301.531 1039.15 298.469C1040.68 296.173 1068.59 294.642 1105.68 294.642H1170.3L1174.12 304.976ZM1346.18 300.383C1348.48 301.531 1350.77 304.593 1350.77 307.655C1350.77 314.162 1252.5 391.476 1246.39 389.18C1241.42 387.649 1212.74 302.297 1215.42 297.704C1217.33 294.642 1335.86 297.321 1346.18 300.383ZM1363.77 398.365C1363.39 456.16 1344.27 510.509 1311 550.697L1297.24 567.155L1293.8 557.587C1285 534.622 1258.62 439.319 1259.77 435.492C1262.06 429.368 1355.74 356.264 1360.33 357.412C1362.62 358.177 1364.15 374.635 1363.77 398.365ZM904.56 396.834C928.266 414.823 948.913 430.899 950.443 432.43C952.355 433.961 946.619 459.222 937.825 488.31C929.031 517.399 921.384 544.573 920.237 548.018C916.795 559.5 909.913 555.673 896.913 536.536C880.472 512.423 865.56 478.742 859.06 452.332C852.942 425.54 851.795 363.536 857.913 363.536C860.207 363.536 881.236 378.463 904.56 396.834ZM1029.97 490.224C1050.62 505.151 1067.83 518.547 1067.83 520.461C1067.83 521.992 1042.97 540.363 1012.38 561.031C971.472 588.589 955.796 597.392 952.737 594.33C947.002 588.589 982.178 463.049 989.443 463.049C990.972 463.049 1008.94 475.297 1029.97 490.224ZM1244.47 529.646C1255.95 568.686 1261.68 595.861 1259.77 597.775C1257.86 599.688 1237.59 588.206 1208.92 568.686C1143.91 523.905 1144.3 524.288 1144.3 520.461C1144.3 515.868 1217.33 462.666 1221.92 464.197C1223.83 464.58 1234.15 494.434 1244.47 529.646ZM1162.27 583.996C1191.33 603.899 1215.42 621.888 1216.18 623.419C1217.33 626.863 1195.15 635.666 1167.24 643.321C1157.68 646 1131.3 647.914 1107.97 648.297C1072.41 648.297 1060.94 646.383 1032.27 637.197C1010.09 630.308 999.002 624.949 999.767 621.505C1000.91 616.146 1097.65 547.635 1104.91 547.635C1107.21 547.253 1133.21 563.711 1162.27 583.996Z"/>
</mask>
<path d="M1100.71 4.52246C1099.56 7.20166 1094.59 21.3632 1089.62 36.2902C1084.27 50.8344 1077.77 69.5888 1075.09 77.6264C1068.59 96.3809 1067.06 97.5291 1037.24 104.801C963.825 123.173 898.825 171.016 856.383 237.996L842.236 260.195L814.706 260.578C799.412 260.961 785.265 261.343 782.971 262.109C781.059 262.491 769.971 263.257 759.265 263.257C748.177 263.64 739 265.171 739 267.084C739 268.615 756.206 282.777 777.236 298.469C798.265 314.162 815.854 328.706 816.618 331.003C817.383 332.916 816.618 347.843 815.089 363.536C805.912 446.208 835.354 531.56 896.913 598.923C900.354 602.75 903.031 608.109 902.266 610.405C901.119 612.319 896.148 629.925 890.795 649.062C885.06 668.199 879.707 686.954 878.178 690.399C873.972 701.115 882.383 697.288 919.854 671.644L956.178 646.766L984.09 659.779C1029.59 680.83 1055.97 686.571 1109.89 686.571C1160.74 686.571 1190.18 680.447 1235.3 659.779C1246.39 654.803 1256.33 650.593 1257.47 650.593C1258.62 650.593 1275.06 661.31 1293.8 674.323C1312.53 687.337 1328.97 696.905 1330.12 695.374C1332.8 693.078 1330.5 683.892 1317.12 637.963L1309.09 612.319L1332.03 586.292C1356.5 558.352 1384.8 505.916 1395.5 468.79C1400.48 451.567 1402 430.516 1402.39 383.821V321.817L1437.95 294.642C1459.36 278.567 1471.59 267.084 1468.53 265.936C1462.8 263.64 1431.83 261.343 1398.56 260.578L1375.24 260.195L1362.24 238.379C1322.86 172.93 1244.47 117.432 1171.83 103.27C1159.21 100.591 1147.36 97.5291 1145.06 95.9981C1141.62 94.0844 1130.53 66.1441 1114.86 17.9185C1108.74 0.312256 1103.39 -4.66339 1100.71 4.52246ZM1121.74 154.941C1125.56 165.275 1134.74 190.918 1142 211.969C1149.65 232.638 1154.62 251.009 1153.47 252.923C1150.41 257.899 1061.33 257.133 1058.27 252.54C1055.59 248.33 1088.86 146.903 1095.74 138.483C1103.77 128.149 1114.86 135.038 1121.74 154.941ZM1046.8 153.792C1045.27 160.682 1040.68 174.843 1036.47 185.56C1032.27 195.894 1025.38 215.031 1021.18 227.662C1016.97 240.292 1012.38 251.775 1010.85 252.923C1007.03 257.133 896.531 260.578 894.236 256.75C893.089 255.219 896.913 246.799 903.031 238.761C931.707 200.104 979.884 164.509 1027.68 147.668C1049.09 140.014 1049.47 140.014 1046.8 153.792ZM1192.09 149.199C1223.06 159.916 1252.89 177.14 1278.89 199.722C1303.74 221.155 1329.36 254.837 1324 258.281C1317.12 262.491 1203.94 255.985 1199.36 251.009C1195.92 247.564 1159.59 148.817 1159.59 143.076C1159.59 139.631 1170.68 141.927 1192.09 149.199ZM993.267 298.469C996.325 303.445 968.031 390.328 963.443 390.328C960.002 390.328 869.766 322.199 866.707 317.224C865.56 315.31 865.942 310.334 867.089 306.124C869.383 299.618 873.589 298.469 912.207 297.321C935.913 296.938 963.06 295.79 973.002 295.407C982.943 295.025 992.12 296.556 993.267 298.469ZM1174.12 304.976C1187.12 337.892 1209.68 414.441 1208.15 418.651C1205.86 424.392 1111.41 493.669 1105.68 493.669C1101.86 493.669 999.002 421.33 999.002 418.651C999.002 415.972 1037.24 301.531 1039.15 298.469C1040.68 296.173 1068.59 294.642 1105.68 294.642H1170.3L1174.12 304.976ZM1346.18 300.383C1348.48 301.531 1350.77 304.593 1350.77 307.655C1350.77 314.162 1252.5 391.476 1246.39 389.18C1241.42 387.649 1212.74 302.297 1215.42 297.704C1217.33 294.642 1335.86 297.321 1346.18 300.383ZM1363.77 398.365C1363.39 456.16 1344.27 510.509 1311 550.697L1297.24 567.155L1293.8 557.587C1285 534.622 1258.62 439.319 1259.77 435.492C1262.06 429.368 1355.74 356.264 1360.33 357.412C1362.62 358.177 1364.15 374.635 1363.77 398.365ZM904.56 396.834C928.266 414.823 948.913 430.899 950.443 432.43C952.355 433.961 946.619 459.222 937.825 488.31C929.031 517.399 921.384 544.573 920.237 548.018C916.795 559.5 909.913 555.673 896.913 536.536C880.472 512.423 865.56 478.742 859.06 452.332C852.942 425.54 851.795 363.536 857.913 363.536C860.207 363.536 881.236 378.463 904.56 396.834ZM1029.97 490.224C1050.62 505.151 1067.83 518.547 1067.83 520.461C1067.83 521.992 1042.97 540.363 1012.38 561.031C971.472 588.589 955.796 597.392 952.737 594.33C947.002 588.589 982.178 463.049 989.443 463.049C990.972 463.049 1008.94 475.297 1029.97 490.224ZM1244.47 529.646C1255.95 568.686 1261.68 595.861 1259.77 597.775C1257.86 599.688 1237.59 588.206 1208.92 568.686C1143.91 523.905 1144.3 524.288 1144.3 520.461C1144.3 515.868 1217.33 462.666 1221.92 464.197C1223.83 464.58 1234.15 494.434 1244.47 529.646ZM1162.27 583.996C1191.33 603.899 1215.42 621.888 1216.18 623.419C1217.33 626.863 1195.15 635.666 1167.24 643.321C1157.68 646 1131.3 647.914 1107.97 648.297C1072.41 648.297 1060.94 646.383 1032.27 637.197C1010.09 630.308 999.002 624.949 999.767 621.505C1000.91 616.146 1097.65 547.635 1104.91 547.635C1107.21 547.253 1133.21 563.711 1162.27 583.996Z" fill="black" stroke="#780606" stroke-width="22" mask="url(#path-4-inside-1_554_1252)"/>
</svg>
